
<svg xmlns="http://www.w3.org/2000/svg" viewBox="0 0 500 500" width="500" height="500" preserveAspectRatio="xMidYMid meet" style="width: 100%; height: 100%; transform: translate3d(0px, 0px, 0px);"><defs><clipPath id="__lottie_element_8006"><rect width="500" height="500" x="0" y="0"></rect></clipPath><mask id="__lottie_element_8013" mask-type="alpha"><g transform="matrix(3.7474019527435303,0,0,3.7474019527435303,252.7090301513672,249.5109405517578)" opacity="1" style="display: block;"><path fill="rgb(255,0,0)" fill-opacity="1" d=" M50.040000915527344,0.75 C50.040000915527344,28.36400032043457 27.65399932861328,50.75 0.03999999910593033,50.75 C-27.573999404907227,50.75 -49.959999084472656,28.36400032043457 -49.959999084472656,0.75 C-49.959999084472656,-26.86400032043457 -27.573999404907227,-49.25 0.03999999910593033,-49.25 C27.65399932861328,-49.25 50.040000915527344,-26.86400032043457 50.040000915527344,0.75z"></path><g opacity="1" transform="matrix(1,0,0,1,0,0)"><path stroke-linecap="round" stroke-linejoin="round" fill-opacity="0" stroke="rgb(19,20,50)" stroke-opacity="1" stroke-width="0" d=" M50.040000915527344,0.75 C50.040000915527344,28.36400032043457 27.65399932861328,50.75 0.03999999910593033,50.75 C-27.573999404907227,50.75 -49.959999084472656,28.36400032043457 -49.959999084472656,0.75 C-49.959999084472656,-26.86400032043457 -27.573999404907227,-49.25 0.03999999910593033,-49.25 C27.65399932861328,-49.25 50.040000915527344,-26.86400032043457 50.040000915527344,0.75z"></path></g></g></mask><clipPath id="__lottie_element_8023"><path d="M0,0 L500,0 L500,500 L0,500z"></path></clipPath></defs><g clip-path="url(#__lottie_element_8006)"><g clip-path="url(#__lottie_element_8023)" transform="matrix(1,0,0,1,0,0)" opacity="1" style="display: block;"><g class="com" transform="matrix(1.440000057220459,0,0,1.440000057220459,249,486)" opacity="0.039913599999807835" style="display: none;"><g opacity="1" transform="matrix(1,0,0,1,0,0)"><path fill="rgb(18,19,49)" fill-opacity="1" d=" M166.77099609375,0 C166.77099609375,0 166.77099609375,-18.23699951171875 166.77099609375,-18.23699951171875 C166.77099609375,-21.701000213623047 165.97900390625,-24.284000396728516 164.39500427246094,-25.982999801635742 C162.81100463867188,-27.68199920654297 160.36199951171875,-28.5310001373291 157.04600524902344,-28.5310001373291 C155.3470001220703,-28.5310001373291 153.79200744628906,-28.20599937438965 152.3820037841797,-27.554000854492188 C150.9720001220703,-26.902000427246094 149.8699951171875,-25.999000549316406 149.0780029296875,-24.8439998626709 C149.0780029296875,-24.8439998626709 148.31100463867188,-24.8439998626709 148.31100463867188,-24.8439998626709 C146.67799377441406,-27.302000045776367 143.84100341796875,-28.5310001373291 139.7989959716797,-28.5310001373291 C138.00100708007812,-28.5310001373291 136.39599609375,-28.19300079345703 134.98599243164062,-27.517000198364258 C133.5760040283203,-26.84000015258789 132.4980010986328,-25.858999252319336 131.75599670410156,-24.57200050354004 C131.75599670410156,-24.57200050354004 131.18699645996094,-24.57200050354004 131.18699645996094,-24.57200050354004 C131.18699645996094,-24.57200050354004 129.97500610351562,-28.035999298095703 129.97500610351562,-28.035999298095703 C129.97500610351562,-28.035999298095703 122.67500305175781,-28.035999298095703 122.67500305175781,-28.035999298095703 C122.67500305175781,-28.035999298095703 122.67500305175781,0 122.67500305175781,0 C122.67500305175781,0 132.35000610351562,0 132.35000610351562,0 C132.35000610351562,0 132.35000610351562,-12.27400016784668 132.35000610351562,-12.27400016784668 C132.35000610351562,-15.342000007629395 132.69700622558594,-17.552000045776367 133.38999938964844,-18.905000686645508 C134.08299255371094,-20.256999969482422 135.18699645996094,-20.934999465942383 136.7050018310547,-20.934999465942383 C137.80999755859375,-20.934999465942383 138.61099243164062,-20.459999084472656 139.1060028076172,-19.511999130249023 C139.6009979248047,-18.562999725341797 139.84800720214844,-17.139999389648438 139.84800720214844,-15.243000030517578 C139.84800720214844,-15.243000030517578 139.84800720214844,0 139.84800720214844,0 C139.84800720214844,0 149.54800415039062,0 149.54800415039062,0 C149.54800415039062,0 149.54800415039062,-13.065999984741211 149.54800415039062,-13.065999984741211 C149.54800415039062,-15.770999908447266 149.89500427246094,-17.757999420166016 150.58799743652344,-19.02899932861328 C151.281005859375,-20.298999786376953 152.36900329589844,-20.934999465942383 153.85400390625,-20.934999465942383 C154.9759979248047,-20.934999465942383 155.79600524902344,-20.459999084472656 156.3159942626953,-19.511999130249023 C156.83599853515625,-18.562999725341797 157.0959930419922,-17.139999389648438 157.0959930419922,-15.243000030517578 C157.0959930419922,-15.243000030517578 157.0959930419922,0 157.0959930419922,0 C157.0959930419922,0 166.77099609375,0 166.77099609375,0z"></path></g><g opacity="1" transform="matrix(1,0,0,1,0,0)"><path fill="rgb(18,19,49)" fill-opacity="1" d=" M99.95899963378906,-19.511999130249023 C100.60199737548828,-20.725000381469727 101.66600036621094,-21.329999923706055 103.1510009765625,-21.329999923706055 C104.66899871826172,-21.329999923706055 105.74099731445312,-20.719999313354492 106.36799621582031,-19.499000549316406 C106.99500274658203,-18.277999877929688 107.30799865722656,-16.472000122070312 107.30799865722656,-14.079999923706055 C107.30799865722656,-11.670999526977539 106.9990005493164,-9.836000442504883 106.37999725341797,-8.574000358581543 C105.76100158691406,-7.311999797821045 104.70099639892578,-6.681000232696533 103.19999694824219,-6.681000232696533 C101.68199920654297,-6.681000232696533 100.60199737548828,-7.311999797821045 99.95899963378906,-8.574000358581543 C99.31600189208984,-9.836000442504883 98.99400329589844,-11.670999526977539 98.99400329589844,-14.079999923706055 C98.99400329589844,-16.488000869750977 99.31600189208984,-18.298999786376953 99.95899963378906,-19.511999130249023z M115.43699645996094,-21.73900032043457 C114.29000091552734,-23.924999237060547 112.66100311279297,-25.601999282836914 110.55000305175781,-26.77400016784668 C108.43800354003906,-27.94499969482422 106.00499725341797,-28.5310001373291 103.25,-28.5310001373291 C98.7959976196289,-28.5310001373291 95.33499908447266,-27.264999389648438 92.86900329589844,-24.732999801635742 C90.40299987792969,-22.200000762939453 89.16999816894531,-18.64900016784668 89.16999816894531,-14.079999923706055 C89.16999816894531,-9.609000205993652 90.427001953125,-6.063000202178955 92.94300079345703,-3.440000057220459 C95.45899963378906,-0.8169999718666077 98.84500122070312,0.4950000047683716 103.10099792480469,0.4950000047683716 C107.53900146484375,0.4950000047683716 110.99099731445312,-0.7879999876022339 113.45700073242188,-3.3529999256134033 C115.9229965209961,-5.918000221252441 117.15699768066406,-9.494000434875488 117.15699768066406,-14.079999923706055 C117.15699768066406,-17 116.58300018310547,-19.55299949645996 115.43699645996094,-21.73900032043457z"></path></g><g opacity="1" transform="matrix(1,0,0,1,0,0)"><path fill="rgb(18,19,49)" fill-opacity="1" d=" M84.81500244140625,-1.9800000190734863 C84.81500244140625,-1.9800000190734863 84.81500244140625,-9.675000190734863 84.81500244140625,-9.675000190734863 C82.20800018310547,-8.024999618530273 79.48600006103516,-7.201000213623047 76.64900207519531,-7.201000213623047 C73.33300018310547,-7.201000213623047 71.67500305175781,-9.444999694824219 71.67500305175781,-13.932000160217285 C71.67500305175781,-16.159000396728516 72.10399627685547,-17.881999969482422 72.96199798583984,-19.10300064086914 C73.81999969482422,-20.323999404907227 75.03199768066406,-20.934999465942383 76.5989990234375,-20.934999465942383 C77.6709976196289,-20.934999465942383 78.7020034790039,-20.781999588012695 79.69200134277344,-20.476999282836914 C80.68199920654297,-20.172000885009766 81.76200103759766,-19.76300048828125 82.93399810791016,-19.25200080871582 C82.93399810791016,-19.25200080871582 85.77999877929688,-26.402999877929688 85.77999877929688,-26.402999877929688 C82.91000366210938,-27.82200050354004 79.8489990234375,-28.5310001373291 76.5989990234375,-28.5310001373291 C71.88099670410156,-28.5310001373291 68.24299621582031,-27.253000259399414 65.68599700927734,-24.695999145507812 C63.12900161743164,-22.138999938964844 61.85100173950195,-18.534000396728516 61.85100173950195,-13.881999969482422 C61.85100173950195,-9.246000289916992 63.03499984741211,-5.691999912261963 65.4020004272461,-3.2170000076293945 C67.76899719238281,-0.7419999837875366 71.24600219726562,0.4950000047683716 75.83200073242188,0.4950000047683716 C79.3290023803711,0.4950000047683716 82.3239974975586,-0.33000001311302185 84.81500244140625,-1.9800000190734863z"></path></g><g opacity="1" transform="matrix(1,0,0,1,0,0)"><path fill="rgb(18,19,49)" fill-opacity="1" d=" M48.61199951171875,-0.6190000176429749 C49.551998138427734,0.20600000023841858 50.8390007019043,0.6190000176429749 52.47200012207031,0.6190000176429749 C54.055999755859375,0.6190000176429749 55.29800033569336,0.20200000703334808 56.196998596191406,-0.6309999823570251 C57.09600067138672,-1.4639999866485596 57.54499816894531,-2.622999906539917 57.54499816894531,-4.107999801635742 C57.54499816894531,-5.625999927520752 57.108001708984375,-6.796999931335449 56.23400115966797,-7.622000217437744 C55.35900115966797,-8.446999549865723 54.10499954223633,-8.859000205993652 52.47200012207031,-8.859000205993652 C50.75600051879883,-8.859000205993652 49.44900131225586,-8.446999549865723 48.54999923706055,-7.622000217437744 C47.6510009765625,-6.796999931335449 47.20199966430664,-5.625999927520752 47.20199966430664,-4.107999801635742 C47.20199966430664,-2.6070001125335693 47.672000885009766,-1.444000005722046 48.61199951171875,-0.6190000176429749z"></path></g><g opacity="1" transform="matrix(1,0,0,1,0,0)"><path fill="rgb(18,19,49)" fill-opacity="1" d=" M41.832000732421875,0 C41.832000732421875,0 41.832000732421875,-18.23699951171875 41.832000732421875,-18.23699951171875 C41.832000732421875,-21.503000259399414 40.970001220703125,-24.035999298095703 39.24599838256836,-25.833999633789062 C37.52199935913086,-27.631999969482422 35.10900115966797,-28.5310001373291 32.007999420166016,-28.5310001373291 C30.111000061035156,-28.5310001373291 28.43199920654297,-28.20199966430664 26.972000122070312,-27.54199981689453 C25.511999130249023,-26.881999969482422 24.3700008392334,-25.892000198364258 23.545000076293945,-24.57200050354004 C23.545000076293945,-24.57200050354004 22.97599983215332,-24.57200050354004 22.97599983215332,-24.57200050354004 C22.97599983215332,-24.57200050354004 21.76300048828125,-28.035999298095703 21.76300048828125,-28.035999298095703 C21.76300048828125,-28.035999298095703 14.46399974822998,-28.035999298095703 14.46399974822998,-28.035999298095703 C14.46399974822998,-28.035999298095703 14.46399974822998,0 14.46399974822998,0 C14.46399974822998,0 24.138999938964844,0 24.138999938964844,0 C24.138999938964844,0 24.138999938964844,-12.27400016784668 24.138999938964844,-12.27400016784668 C24.138999938964844,-15.440999984741211 24.50200080871582,-17.677000045776367 25.22800064086914,-18.979999542236328 C25.95400047302246,-20.283000946044922 27.132999420166016,-20.934999465942383 28.766000747680664,-20.934999465942383 C29.95400047302246,-20.934999465942383 30.81599998474121,-20.459999084472656 31.351999282836914,-19.511999130249023 C31.88800048828125,-18.562999725341797 32.15700149536133,-17.156999588012695 32.15700149536133,-15.293000221252441 C32.15700149536133,-15.293000221252441 32.15700149536133,0 32.15700149536133,0 C32.15700149536133,0 41.832000732421875,0 41.832000732421875,0z"></path></g><g opacity="1" transform="matrix(1,0,0,1,0,0)"><path fill="rgb(18,19,49)" fill-opacity="1" d=" M-8.253000259399414,-19.511999130249023 C-7.610000133514404,-20.725000381469727 -6.545000076293945,-21.329999923706055 -5.059999942779541,-21.329999923706055 C-3.5420000553131104,-21.329999923706055 -2.4709999561309814,-20.719999313354492 -1.843999981880188,-19.499000549316406 C-1.2170000076293945,-18.277999877929688 -0.902999997138977,-16.472000122070312 -0.902999997138977,-14.079999923706055 C-0.902999997138977,-11.670999526977539 -1.2120000123977661,-9.836000442504883 -1.8309999704360962,-8.574000358581543 C-2.450000047683716,-7.311999797821045 -3.509999990463257,-6.681000232696533 -5.011000156402588,-6.681000232696533 C-6.5289998054504395,-6.681000232696533 -7.610000133514404,-7.311999797821045 -8.253000259399414,-8.574000358581543 C-8.895999908447266,-9.836000442504883 -9.218000411987305,-11.670999526977539 -9.218000411987305,-14.079999923706055 C-9.218000411987305,-16.488000869750977 -8.895999908447266,-18.298999786376953 -8.253000259399414,-19.511999130249023z M7.22599983215332,-21.73900032043457 C6.078999996185303,-23.924999237060547 4.448999881744385,-25.601999282836914 2.3380000591278076,-26.77400016784668 C0.22599999606609344,-27.94499969482422 -2.2060000896453857,-28.5310001373291 -4.960999965667725,-28.5310001373291 C-9.414999961853027,-28.5310001373291 -12.87600040435791,-27.264999389648438 -15.342000007629395,-24.732999801635742 C-17.808000564575195,-22.200000762939453 -19.04199981689453,-18.64900016784668 -19.04199981689453,-14.079999923706055 C-19.04199981689453,-9.609000205993652 -17.784000396728516,-6.063000202178955 -15.267999649047852,-3.440000057220459 C-12.751999855041504,-0.8169999718666077 -9.366000175476074,0.4950000047683716 -5.110000133514404,0.4950000047683716 C-0.671999990940094,0.4950000047683716 2.7799999713897705,-0.7879999876022339 5.245999813079834,-3.3529999256134033 C7.711999893188477,-5.918000221252441 8.944999694824219,-9.494000434875488 8.944999694824219,-14.079999923706055 C8.944999694824219,-17 8.371999740600586,-19.55299949645996 7.22599983215332,-21.73900032043457z"></path></g><g opacity="1" transform="matrix(1,0,0,1,0,0)"><path fill="rgb(18,19,49)" fill-opacity="1" d=" M-23.39699935913086,-1.9800000190734863 C-23.39699935913086,-1.9800000190734863 -23.39699935913086,-9.675000190734863 -23.39699935913086,-9.675000190734863 C-26.003999710083008,-8.024999618530273 -28.72599983215332,-7.201000213623047 -31.562999725341797,-7.201000213623047 C-34.87900161743164,-7.201000213623047 -36.5359992980957,-9.444999694824219 -36.5359992980957,-13.932000160217285 C-36.5359992980957,-16.159000396728516 -36.108001708984375,-17.881999969482422 -35.25,-19.10300064086914 C-34.391998291015625,-20.323999404907227 -33.17900085449219,-20.934999465942383 -31.61199951171875,-20.934999465942383 C-30.540000915527344,-20.934999465942383 -29.509000778198242,-20.781999588012695 -28.518999099731445,-20.476999282836914 C-27.52899932861328,-20.172000885009766 -26.448999404907227,-19.76300048828125 -25.277000427246094,-19.25200080871582 C-25.277000427246094,-19.25200080871582 -22.43199920654297,-26.402999877929688 -22.43199920654297,-26.402999877929688 C-25.302000045776367,-27.82200050354004 -28.36199951171875,-28.5310001373291 -31.61199951171875,-28.5310001373291 C-36.33000183105469,-28.5310001373291 -39.96799850463867,-27.253000259399414 -42.525001525878906,-24.695999145507812 C-45.082000732421875,-22.138999938964844 -46.36000061035156,-18.534000396728516 -46.36000061035156,-13.881999969482422 C-46.36000061035156,-9.246000289916992 -45.17599868774414,-5.691999912261963 -42.808998107910156,-3.2170000076293945 C-40.44200134277344,-0.7419999837875366 -36.96500015258789,0.4950000047683716 -32.37900161743164,0.4950000047683716 C-28.881999969482422,0.4950000047683716 -25.88800048828125,-0.33000001311302185 -23.39699935913086,-1.9800000190734863z"></path></g><g opacity="1" transform="matrix(1,0,0,1,0,0)"><path fill="rgb(18,19,49)" fill-opacity="1" d=" M-56.70399856567383,-30.757999420166016 C-53.25600051879883,-30.757999420166016 -51.53200149536133,-32.176998138427734 -51.53200149536133,-35.01499938964844 C-51.53200149536133,-36.433998107910156 -51.944000244140625,-37.50600051879883 -52.76900100708008,-38.231998443603516 C-53.59400177001953,-38.95800018310547 -54.90599822998047,-39.31999969482422 -56.70399856567383,-39.31999969482422 C-58.50199890136719,-39.31999969482422 -59.805999755859375,-38.96500015258789 -60.61399841308594,-38.25600051879883 C-61.422000885009766,-37.547000885009766 -61.82600021362305,-36.465999603271484 -61.82600021362305,-35.01499938964844 C-61.82600021362305,-32.176998138427734 -60.11899948120117,-30.757999420166016 -56.70399856567383,-30.757999420166016z M-51.90299987792969,-28.035999298095703 C-51.90299987792969,-28.035999298095703 -61.57899856567383,-28.035999298095703 -61.57899856567383,-28.035999298095703 C-61.57899856567383,-28.035999298095703 -61.57899856567383,0 -61.57899856567383,0 C-61.57899856567383,0 -51.90299987792969,0 -51.90299987792969,0 C-51.90299987792969,0 -51.90299987792969,-28.035999298095703 -51.90299987792969,-28.035999298095703z"></path></g><g opacity="1" transform="matrix(1,0,0,1,0,0)"><path fill="rgb(18,19,49)" fill-opacity="1" d=" M-84.59200286865234,-8.859000205993652 C-85.3010025024414,-9.996999740600586 -85.65599822998047,-11.654999732971191 -85.65599822998047,-13.833000183105469 C-85.65599822998047,-16.042999267578125 -85.30500030517578,-17.746999740600586 -84.60399627685547,-18.94300079345703 C-83.90299987792969,-20.138999938964844 -82.91799926757812,-20.73699951171875 -81.64700317382812,-20.73699951171875 C-80.12899780273438,-20.73699951171875 -79.01599884033203,-20.211999893188477 -78.30699920654297,-19.165000915527344 C-77.5979995727539,-18.117000579833984 -77.24199676513672,-16.35700035095215 -77.24199676513672,-13.881999969482422 C-77.24199676513672,-13.881999969482422 -77.24199676513672,-13.114999771118164 -77.24199676513672,-13.114999771118164 C-77.29100036621094,-11.086000442504883 -77.63400268554688,-9.583999633789062 -78.26899719238281,-8.611000061035156 C-78.90399932861328,-7.63700008392334 -79.99800109863281,-7.151000022888184 -81.5479965209961,-7.151000022888184 C-82.86799621582031,-7.151000022888184 -83.88300323486328,-7.7210001945495605 -84.59200286865234,-8.859000205993652z M-78.05899810791016,-3.5390000343322754 C-78.05899810791016,-3.5390000343322754 -77.68800354003906,-3.5390000343322754 -77.68800354003906,-3.5390000343322754 C-77.68800354003906,-3.5390000343322754 -75.60900115966797,0 -75.60900115966797,0 C-75.60900115966797,0 -68.30899810791016,0 -68.30899810791016,0 C-68.30899810791016,0 -68.30899810791016,-38.50400161743164 -68.30899810791016,-38.50400161743164 C-68.30899810791016,-38.50400161743164 -78.05899810791016,-38.50400161743164 -78.05899810791016,-38.50400161743164 C-78.05899810791016,-38.50400161743164 -78.05899810791016,-31.006000518798828 -78.05899810791016,-31.006000518798828 C-78.05899810791016,-28.812000274658203 -77.90299987792969,-26.618000030517578 -77.58899688720703,-24.423999786376953 C-77.58899688720703,-24.423999786376953 -77.78700256347656,-24.423999786376953 -77.78700256347656,-24.423999786376953 C-78.76100158691406,-25.909000396728516 -79.83699798583984,-26.964000701904297 -81.01599884033203,-27.590999603271484 C-82.19599914550781,-28.218000411987305 -83.56900024414062,-28.5310001373291 -85.13600158691406,-28.5310001373291 C-88.33699798583984,-28.5310001373291 -90.85299682617188,-27.2450008392334 -92.68399810791016,-24.67099952697754 C-94.51499938964844,-22.097000122070312 -95.43000030517578,-18.534000396728516 -95.43000030517578,-13.980999946594238 C-95.43000030517578,-11.027999877929688 -95.02200317382812,-8.446000099182129 -94.20500183105469,-6.236000061035156 C-93.38800048828125,-4.025000095367432 -92.23400115966797,-2.3510000705718994 -90.74099731445312,-1.2130000591278076 C-89.24800109863281,-0.07500000298023224 -87.50299835205078,0.4950000047683716 -85.50700378417969,0.4950000047683716 C-82.20800018310547,0.4950000047683716 -79.7249984741211,-0.8500000238418579 -78.05899810791016,-3.5390000343322754z"></path></g><g opacity="1" transform="matrix(1,0,0,1,0,0)"><path fill="rgb(18,19,49)" fill-opacity="1" d=" M-105.44000244140625,-27.158000946044922 C-106.88400268554688,-26.242000579833984 -108.00900268554688,-25.042999267578125 -108.81700134277344,-23.558000564575195 C-108.81700134277344,-23.558000564575195 -109.28800201416016,-23.558000564575195 -109.28800201416016,-23.558000564575195 C-109.28800201416016,-23.558000564575195 -110.7969970703125,-28.035999298095703 -110.7969970703125,-28.035999298095703 C-110.7969970703125,-28.035999298095703 -117.99800109863281,-28.035999298095703 -117.99800109863281,-28.035999298095703 C-117.99800109863281,-28.035999298095703 -117.99800109863281,0 -117.99800109863281,0 C-117.99800109863281,0 -108.322998046875,0 -108.322998046875,0 C-108.322998046875,0 -108.322998046875,-13.782999992370605 -108.322998046875,-13.782999992370605 C-108.322998046875,-15.597999572753906 -107.84400177001953,-16.988000869750977 -106.88700103759766,-17.952999114990234 C-105.93000030517578,-18.917999267578125 -104.39700317382812,-19.399999618530273 -102.28500366210938,-19.399999618530273 C-100.88300323486328,-19.399999618530273 -99.78600311279297,-19.301000595092773 -98.99400329589844,-19.10300064086914 C-98.99400329589844,-19.10300064086914 -98.12799835205078,-28.233999252319336 -98.12799835205078,-28.233999252319336 C-98.12799835205078,-28.233999252319336 -98.6719970703125,-28.33300018310547 -98.6719970703125,-28.33300018310547 C-99.43099975585938,-28.46500015258789 -100.23100280761719,-28.5310001373291 -101.0719985961914,-28.5310001373291 C-102.54000091552734,-28.5310001373291 -103.99700164794922,-28.073999404907227 -105.44000244140625,-27.158000946044922z"></path></g><g opacity="1" transform="matrix(1,0,0,1,0,0)"><path fill="rgb(18,19,49)" fill-opacity="1" d=" M-140.71400451660156,-19.511999130249023 C-140.0709991455078,-20.725000381469727 -139.0070037841797,-21.329999923706055 -137.52200317382812,-21.329999923706055 C-136.00399780273438,-21.329999923706055 -134.9320068359375,-20.719999313354492 -134.30499267578125,-19.499000549316406 C-133.67799377441406,-18.277999877929688 -133.36500549316406,-16.472000122070312 -133.36500549316406,-14.079999923706055 C-133.36500549316406,-11.670999526977539 -133.6739959716797,-9.836000442504883 -134.29299926757812,-8.574000358581543 C-134.91200256347656,-7.311999797821045 -135.9720001220703,-6.681000232696533 -137.47300720214844,-6.681000232696533 C-138.99099731445312,-6.681000232696533 -140.0709991455078,-7.311999797821045 -140.71400451660156,-8.574000358581543 C-141.35699462890625,-9.836000442504883 -141.6790008544922,-11.670999526977539 -141.6790008544922,-14.079999923706055 C-141.6790008544922,-16.488000869750977 -141.35699462890625,-18.298999786376953 -140.71400451660156,-19.511999130249023z M-125.23600006103516,-21.73900032043457 C-126.38300323486328,-23.924999237060547 -128.01199340820312,-25.601999282836914 -130.1230010986328,-26.77400016784668 C-132.23500061035156,-27.94499969482422 -134.66799926757812,-28.5310001373291 -137.42300415039062,-28.5310001373291 C-141.8769989013672,-28.5310001373291 -145.33799743652344,-27.264999389648438 -147.8040008544922,-24.732999801635742 C-150.27000427246094,-22.200000762939453 -151.5030059814453,-18.64900016784668 -151.5030059814453,-14.079999923706055 C-151.5030059814453,-9.609000205993652 -150.2449951171875,-6.063000202178955 -147.72900390625,-3.440000057220459 C-145.21299743652344,-0.8169999718666077 -141.8280029296875,0.4950000047683716 -137.57200622558594,0.4950000047683716 C-133.13400268554688,0.4950000047683716 -129.6820068359375,-0.7879999876022339 -127.21600341796875,-3.3529999256134033 C-124.75,-5.918000221252441 -123.51599884033203,-9.494000434875488 -123.51599884033203,-14.079999923706055 C-123.51599884033203,-17 -124.08999633789062,-19.55299949645996 -125.23600006103516,-21.73900032043457z"></path></g><g opacity="1" transform="matrix(1,0,0,1,0,0)"><path fill="rgb(18,19,49)" fill-opacity="1" d=" M-156.9969940185547,-38.50400161743164 C-156.9969940185547,-38.50400161743164 -166.6719970703125,-38.50400161743164 -166.6719970703125,-38.50400161743164 C-166.6719970703125,-38.50400161743164 -166.6719970703125,0 -166.6719970703125,0 C-166.6719970703125,0 -156.9969940185547,0 -156.9969940185547,0 C-156.9969940185547,0 -156.9969940185547,-38.50400161743164 -156.9969940185547,-38.50400161743164z"></path></g></g></g><g transform="matrix(3.7474019527435303,0,0,3.7474019527435303,252.7090301513672,249.5109405517578)" opacity="1" style="display: block;"><g opacity="1" transform="matrix(1,0,0,1,0,0)"><path stroke-linecap="round" stroke-linejoin="round" fill-opacity="0" stroke="rgb(18,19,49)" stroke-opacity="1" stroke-width="4.8" d=" M50.040000915527344,0.75 C50.040000915527344,28.36400032043457 27.65399932861328,50.75 0.03999999910593033,50.75 C-27.573999404907227,50.75 -49.959999084472656,28.36400032043457 -49.959999084472656,0.75 C-49.959999084472656,-26.86400032043457 -27.573999404907227,-49.25 0.03999999910593033,-49.25 C27.65399932861328,-49.25 50.040000915527344,-26.86400032043457 50.040000915527344,0.75z"></path></g></g><g mask="url(#__lottie_element_8013)" style="display: block;"><g transform="matrix(6.145700454711914,0,0,6.145700454711914,193.83935546875,193.48062133789062)" opacity="1"><g opacity="1" transform="matrix(1,0,0,1,0,0)"><path stroke-linecap="round" stroke-linejoin="round" fill-opacity="0" stroke="rgb(18,19,49)" stroke-opacity="1" stroke-width="3" d=" M-11.961999893188477,31.836000442504883 C-12.333999633789062,31.836000442504883 -12.532999992370605,31.836000442504883 -12.532999992370605,31.836000442504883 C-12.532999992370605,31.836000442504883 -12.467000007629395,29.768999099731445 -12.467000007629395,29.768999099731445 C-12.467000007629395,22.027000427246094 -6.190000057220459,15.75 1.5520000457763672,15.75 C1.5520000457763672,15.75 17.58300018310547,15.75 17.58300018310547,15.75 C25.325000762939453,15.75 31.601999282836914,22.027000427246094 31.601999282836914,29.768999099731445 C31.601999282836914,29.768999099731445 31.535999298095703,31.836000442504883 31.535999298095703,31.836000442504883 C31.535999298095703,31.836000442504883 31.535999298095703,31.836000442504883 31.535999298095703,31.836000442504883 C31.535999298095703,31.836000442504883 31.535999298095703,31.836000442504883 31.535999298095703,31.836000442504883"></path></g></g></g><g transform="matrix(-6.144764423370361,-0.10725725442171097,0.10725725442171097,-6.144764423370361,301.5188903808594,174.63992309570312)" opacity="1" style="display: block;"><g opacity="1" transform="matrix(1,0,0,1,0,0)"><path stroke-linecap="round" stroke-linejoin="round" fill-opacity="0" stroke="rgb(8,168,138)" stroke-opacity="1" stroke-width="3" d=" M15.67300033569336,-9.74899959564209 C17.15399932861328,-7.986000061035156 18.04599952697754,-5.710000038146973 18.04599952697754,-3.2269999980926514 C18.04599952697754,-3.2269999980926514 18.04599952697754,-3.2269999980926514 18.04599952697754,-3.2269999980926514 C18.04599952697754,2.377000093460083 13.501999855041504,6.921000003814697 7.8979997634887695,6.921000003814697 C2.2939999103546143,6.921000003814697 -2.25,2.377000093460083 -2.25,-3.2269999980926514 C-2.25,-8.831000328063965 2.2929999828338623,-13.375 7.8979997634887695,-13.375 C11.019000053405762,-13.375 13.810999870300293,-11.965999603271484 15.67300033569336,-9.74899959564209"></path></g></g></g></svg>